<svg id="Layer_1" data-name="Layer 1" xmlns="http://www.w3.org/2000/svg" viewBox="0 0 425 425"><title>Logo</title><path d="M173.09,411.22l-.87,0a10,10,0,0,1-9.06-8.71L127.51,120,33.4,198.14a10,10,0,0,1-12.78-15.38L128.76,93a10,10,0,0,1,16.31,6.44l32.09,254.29,39.4-128.83c-25.2-28.05-36.95-56.38-29.73-78.22,6.58-19.86,27.95-33.67,63.54-41,26.1-5.39,59.33-7,91.19-4.39,15.87,1.29,29.84,3.53,40.38,6.45,10.19,2.83,22.08,7.38,23.69,17.56.62,3.93-.61,8-3.66,12-12.1,16.13-63.23,44.21-155.11,56.93l-7.75,25.34c18.44,18.38,43.85,37.26,75.06,53.56a10,10,0,1,1-9.25,17.73c-28.29-14.77-52.91-32-72.37-49.86L182.64,404.15A10,10,0,0,1,173.09,411.22ZM311.2,120c-24.14,0-47.06,2.47-65.09,7.14-15.84,4.1-35.69,11.9-40.29,25.79-3.93,11.9,2.47,29.64,17.71,49.16l6.08-19.87a10,10,0,0,1,8.29-7c86-11,131.58-35.35,144.65-46.38-7.4-2.81-23.21-6.53-49-8.14C326.06,120.22,318.57,120,311.2,120Z" transform="translate(-8.07 -8.04)" style="fill:#231f20"/><path d="M236.9,374a8.89,8.89,0,0,1-3.47-.7L163.31,344a9,9,0,0,1,3.37-17.3l72-.84,31.07-108.72a9,9,0,0,1,17.3,4.94L257.51,325.62l131-1.53h.1a9,9,0,0,1,.11,18l-136.38,1.59-6.8,23.78A9,9,0,0,1,236.9,374Zm-26.47-29.82L231,352.78l2.54-8.88Z" transform="translate(-8.07 -8.04)" style="fill:#231f20"/><circle cx="212.5" cy="212.5" r="200" style="fill:none;stroke:#231f20;stroke-miterlimit:10;stroke-width:25px"/></svg>